<svg xmlns="http://www.w3.org/2000/svg" enable-background="new 0 0 64 64" viewBox="0 0 64 64" id="3d-modeling"><polygon fill="#2d2d2d" points="31.04 32.81 18.03 25.59 18.03 31.04 18.03 32.96 18.03 40.24 31.04 47.35"></polygon><path fill="red" d="M28.83,6.19c0.35,0,0.68-0.16,0.91-0.43l1.08-1.32v10.41l0.77-0.46c0.12-0.08,0.27-0.12,0.41-0.12
		c0.13,0,0.26,0.04,0.38,0.1l0.79,0.46V4.45l1.08,1.32c0.22,0.27,0.55,0.43,0.91,0.43c0.27,0,0.53-0.1,0.75-0.27
		c0.5-0.41,0.57-1.15,0.16-1.65l-3.2-3.88l-0.13-0.13c-0.04-0.03-0.09-0.07-0.18-0.12l-0.1-0.05C32.34,0.04,32.21,0.02,32,0
		c-0.1,0-0.2,0.01-0.28,0.04c-0.05,0.01-0.09,0.03-0.13,0.05l-0.12,0.05c-0.05,0.02-0.12,0.05-0.18,0.1
		c-0.06,0.05-0.1,0.09-0.2,0.19l-3.17,3.84c-0.2,0.24-0.29,0.55-0.26,0.86c0.03,0.31,0.18,0.59,0.42,0.79
		C28.3,6.1,28.56,6.19,28.83,6.19z"></path><polygon fill="#2d2d2d" points="45 23.65 32.96 16.69 32.01 16.15 31.04 16.73 19 23.93 31.99 31.15"></polygon><path fill="red" d="M35.17 57.81c-.35 0-.68.16-.91.43l-1.08 1.32V49.19l-.8.44c-.11.06-.25.09-.38.09-.07 0-.16-.01-.23-.04l-.12-.04-.82-.45v10.37l-1.08-1.32c-.22-.27-.56-.43-.91-.43-.27 0-.54.1-.75.27-.5.41-.57 1.15-.16 1.65l3.16 3.84.13.12.03.02c.03.03.07.08.13.11l.05.04h.02l.09.04c.12.05.25.08.46.1h0c.1 0 .19-.01.25-.03.07 0 .11-.02.1-.02 0 0 0 0-.01 0l.2-.08c.06-.02.11-.06.17-.1.06-.05.1-.09.2-.19l3.17-3.84c.2-.24.29-.55.26-.86-.03-.31-.18-.59-.42-.79C35.7 57.9 35.44 57.81 35.17 57.81zM63.96 31.72c-.01-.05-.03-.1-.05-.13l-.05-.12c-.02-.05-.05-.11-.13-.21-.04-.06-.09-.11-.17-.17l-3.84-3.17c-.21-.17-.47-.27-.75-.27-.35 0-.68.16-.91.43-.2.24-.29.55-.26.86.03.31.18.59.42.79l1.31 1.08H47.68v2.35h11.87l-1.32 1.08c-.5.41-.57 1.15-.16 1.65.22.27.55.43.91.43.27 0 .53-.1.74-.27l3.84-3.16.13-.14.02-.03c.03-.03.08-.07.11-.12l.03-.05v-.02l.04-.09c.05-.11.07-.23.1-.46C64 31.9 63.99 31.8 63.96 31.72z"></path><polygon fill="#2d2d2d" points="32.96 47.33 45.97 40.05 45.97 32.96 45.97 31.04 45.97 25.31 32.96 32.81"></polygon><path fill="red" d="M5.76,29.74c0.5-0.41,0.57-1.15,0.16-1.65c-0.22-0.27-0.56-0.43-0.91-0.43c-0.27,0-0.54,0.1-0.74,0.27
		l-3.88,3.2l-0.13,0.14c-0.03,0.04-0.07,0.09-0.11,0.18l-0.05,0.1C0.05,31.65,0.02,31.77,0,32c0,0.09,0.01,0.19,0.03,0.25
		c0,0.06,0.02,0.1,0.02,0.1c0,0,0,0,0-0.01l0.05,0.13l0.04,0.1l0.08,0.14c0.04,0.05,0.08,0.09,0.13,0.11l0.07,0.08l3.84,3.17
		c0.21,0.17,0.47,0.27,0.75,0.27c0.35,0,0.68-0.16,0.91-0.43c0.2-0.24,0.29-0.55,0.26-0.86c-0.03-0.31-0.18-0.59-0.42-0.79
		l-1.31-1.08h11.87v-2.35H4.45L5.76,29.74z"></path></svg>