<svg xmlns="http://www.w3.org/2000/svg" enable-background="new 0 0 64 64" viewBox="0 0 64 64" id="digital-cinema"><path d="M60.3,45.73H3.7c-2.04,0-3.7-1.66-3.7-3.7V8.56c0-2.04,1.66-3.7,3.7-3.7h56.6c2.04,0,3.7,1.66,3.7,3.7v33.47
			C64,44.07,62.34,45.73,60.3,45.73z M3.7,5.85c-1.5,0-2.72,1.22-2.72,2.72v33.47c0,1.5,1.22,2.72,2.72,2.72h56.6
			c1.5,0,2.72-1.22,2.72-2.72V8.56c0-1.5-1.22-2.72-2.72-2.72H3.7z"></path><path d="M58.63 42.1H5.52c-.8 0-1.44-.65-1.44-1.44V10.23c0-.8.65-1.44 1.44-1.44h53.11c.8 0 1.44.65 1.44 1.44v30.43C60.07 41.45 59.42 42.1 58.63 42.1zM5.52 9.77c-.25 0-.46.21-.46.46v30.43c0 .25.21.46.46.46h53.11c.25 0 .46-.21.46-.46V10.23c0-.25-.21-.46-.46-.46H5.52zM43.37 56.27c-.1 0-.2-.03-.29-.09-3.15-2.25-5.06-6.34-5.09-10.93 0-.27.22-.49.49-.5 0 0 0 0 0 0 .27 0 .49.22.49.49.03 4.28 1.78 8.07 4.68 10.14.22.16.27.47.11.69C43.68 56.2 43.53 56.27 43.37 56.27zM20.86 56.27c-.14 0-.29-.06-.38-.18-.17-.21-.14-.52.08-.69 2.17-1.74 4.72-4.91 4.57-10.14-.01-.27.21-.5.48-.51.26 0 .5.21.51.48.16 5.63-2.6 9.06-4.94 10.93C21.07 56.24 20.96 56.27 20.86 56.27z"></path><path d="M43.97 59.14H20.16c-1.04 0-1.89-.85-1.89-1.89 0-1.11.85-1.96 1.89-1.96h23.81c1.04 0 1.89.85 1.89 1.89C45.86 58.29 45.01 59.14 43.97 59.14zM20.16 56.27c-.5 0-.9.41-.9.9 0 .57.41.97.9.97h23.81c.5 0 .91-.41.91-.9 0-.57-.41-.97-.91-.97H20.16zM42.18 32.3c-3.78 0-6.86-3.08-6.86-6.86 0-3.78 3.08-6.86 6.86-6.86s6.86 3.08 6.86 6.86C49.04 29.22 45.96 32.3 42.18 32.3zM42.18 19.56c-3.24 0-5.88 2.64-5.88 5.88 0 3.24 2.64 5.88 5.88 5.88 3.24 0 5.88-2.64 5.88-5.88C48.06 22.2 45.42 19.56 42.18 19.56z"></path><path d="M42.18 27.1c-.92 0-1.66-.75-1.66-1.66 0-.92.74-1.66 1.66-1.66s1.66.75 1.66 1.66C43.84 26.35 43.1 27.1 42.18 27.1zM42.18 24.76c-.37 0-.68.3-.68.68 0 .37.3.68.68.68s.68-.3.68-.68C42.86 25.07 42.55 24.76 42.18 24.76zM42.18 30.76c-.92 0-1.66-.75-1.66-1.66 0-.92.74-1.66 1.66-1.66s1.66.75 1.66 1.66C43.84 30.02 43.1 30.76 42.18 30.76zM42.18 28.43c-.37 0-.68.3-.68.68 0 .37.3.68.68.68s.68-.3.68-.68C42.86 28.73 42.55 28.43 42.18 28.43zM42.18 23.44c-.92 0-1.66-.75-1.66-1.66s.74-1.66 1.66-1.66 1.66.75 1.66 1.66S43.1 23.44 42.18 23.44zM42.18 21.1c-.37 0-.68.3-.68.68s.3.68.68.68.68-.3.68-.68S42.55 21.1 42.18 21.1zM45.91 27.1c-.92 0-1.66-.75-1.66-1.66 0-.92.74-1.66 1.66-1.66.92 0 1.66.75 1.66 1.66C47.57 26.35 46.82 27.1 45.91 27.1zM45.91 24.76c-.37 0-.68.3-.68.68 0 .37.3.68.68.68s.68-.3.68-.68C46.58 25.07 46.28 24.76 45.91 24.76zM38.55 27.1c-.92 0-1.66-.75-1.66-1.66 0-.92.74-1.66 1.66-1.66.92 0 1.66.75 1.66 1.66C40.21 26.35 39.47 27.1 38.55 27.1zM38.55 24.76c-.37 0-.68.3-.68.68 0 .37.3.68.68.68.37 0 .68-.3.68-.68C39.23 25.07 38.93 24.76 38.55 24.76zM57.3 32.3H42.18c-.27 0-.49-.22-.49-.49s.22-.49.49-.49H57.3c.27 0 .49.22.49.49S57.57 32.3 57.3 32.3zM56.22 25.93h-7.66c-.27 0-.49-.22-.49-.49 0-.27.22-.49.49-.49h7.66c.27 0 .49.22.49.49C56.71 25.71 56.49 25.93 56.22 25.93z"></path><path d="M50.35 32.3c-.27 0-.49-.22-.49-.49v-6.37c0-.27.22-.49.49-.49.27 0 .49.22.49.49v6.37C50.84 32.08 50.62 32.3 50.35 32.3zM54.44 32.3c-.27 0-.49-.22-.49-.49v-6.37c0-.27.22-.49.49-.49.27 0 .49.22.49.49v6.37C54.94 32.08 54.72 32.3 54.44 32.3z"></path><g><path d="M32.07,42.1c-0.27,0-0.49-0.22-0.49-0.49V9.27c0-0.27,0.22-0.49,0.49-0.49c0.27,0,0.49,0.22,0.49,0.49V41.6
			C32.57,41.88,32.35,42.1,32.07,42.1z"></path></g><g><path d="M13.35,33.91c-0.36,0-0.72-0.09-1.04-0.28c-0.64-0.37-1.03-1.04-1.03-1.78l-0.06-12.37l0,0c0-0.75,0.38-1.42,1.03-1.8
						c0.65-0.38,1.42-0.38,2.07-0.01l10.93,6.22c0.66,0.37,1.05,1.05,1.05,1.8c0,0.76-0.4,1.43-1.05,1.8l-10.87,6.15
						C14.05,33.82,13.7,33.91,13.35,33.91z M12.21,19.48l0.06,12.37c0,0.39,0.2,0.74,0.54,0.94c0.34,0.2,0.74,0.2,1.08,0.01
						l10.87-6.15c0.35-0.2,0.55-0.55,0.55-0.95c0-0.4-0.21-0.75-0.55-0.95l-10.93-6.22c-0.34-0.19-0.75-0.19-1.09,0.01
						C12.41,18.73,12.2,19.09,12.21,19.48L12.21,19.48z"></path></g></svg>