<svg xmlns="http://www.w3.org/2000/svg" viewBox="0 0 64 64" id="dwg"><g><path d="M43 51a1 1 0 0 0-1 1v3h-3a1 1 0 0 0 0 2h4a1 1 0 0 0 1-1v-4a1 1 0 0 0-1-1zm-22 4h-3v-3a1 1 0 0 0-2 0v4a1 1 0 0 0 1 1h4a1 1 0 0 0 0-2zm22-26h-4a1 1 0 0 0 0 2h3v3a1 1 0 0 0 2 0v-4a1 1 0 0 0-1-1zm-26 6a1 1 0 0 0 1-1v-3h3a1 1 0 0 0 0-2h-4a1 1 0 0 0-1 1v4a1 1 0 0 0 1 1z"></path><circle cx="30" cy="43" r="1"></circle><path d="M43 42h-8v-3a1 1 0 0 0-1-1h-3v-8a1 1 0 0 0-2 0v8h-3a1 1 0 0 0-1 1v3h-8a1 1 0 0 0 0 2h8v3a1 1 0 0 0 1 1h3v8a1 1 0 0 0 2 0v-8h3a1 1 0 0 0 1-1v-3h8a1 1 0 0 0 0-2zm-10 4h-6v-6h6zM14 10h-2a1 1 0 0 0-1 1v10a1 1 0 0 0 1 1h2a5.006 5.006 0 0 0 5-5v-2a5.006 5.006 0 0 0-5-5zm3 7a3 3 0 0 1-3 3h-1v-8h1a3 3 0 0 1 3 3zm11-7a1 1 0 0 0-1 1v6.39l-1.143-1.905a1.039 1.039 0 0 0-1.714 0L23 17.39V11a1 1 0 0 0-2 0v10a1 1 0 0 0 1.857.515L25 17.944l2.143 3.571A1 1 0 0 0 29 21V11a1 1 0 0 0-1-1zm10 5h-2a1 1 0 0 0 0 2h1v1a2 2 0 0 1-4 0v-4a2 2 0 0 1 3.49-1.334 1 1 0 1 0 1.489-1.335A4 4 0 0 0 31 14v4a4 4 0 0 0 8 0v-2a1 1 0 0 0-1-1z"></path><circle cx="53" cy="43" r="1"></circle><path d="M57 2H11a1 1 0 0 0-1 1v3H7a1 1 0 0 0-1 1v54a1 1 0 0 0 1 1h46a1 1 0 0 0 1-1v-3h3a1 1 0 0 0 1-1V3a1 1 0 0 0-1-1ZM8 8h34v7a3 3 0 0 0 3 3h7v6H8Zm36 7V9.414L50.586 16H45a1 1 0 0 1-1-1Zm12 41h-2v-9a1 1 0 0 0-2 0v13H8V26h44v13a1 1 0 0 0 2 0V17a1 1 0 0 0-.293-.707l-10-10A1 1 0 0 0 43 6H12V4h44Z"></path></g></svg>